<?xml version="1.0" encoding="utf-8"?>
<!-- Generator: Adobe Illustrator 26.0.3, SVG Export Plug-In . SVG Version: 6.00 Build 0)  -->
<svg version="1.1" id="Layer_1" xmlns="http://www.w3.org/2000/svg" xmlns:xlink="http://www.w3.org/1999/xlink" x="0px" y="0px"
	 viewBox="0 0 330 330" style="enable-background:new 0 0 330 330;" xml:space="preserve">
<style type="text/css">
	.st0{fill:#151360;}
	.st1{fill:#FFC500;}
</style>
<path id="XMLID_00000092420176091514440840000012075218608900841151_" class="st0" d="M284.7,131.5c-2.1-4.8-6.9-7.8-12.2-7.8h-74.7
	l50-79.4c2.7-4.3,2.9-9.7,0.5-14s-6.9-7-12-7H155c-4.8,0-9.3,2.7-11.7,6.7L44,203.6c-2.4,4.3-2.4,9.4,0,13.7s6.9,7,11.7,7h81.6
	l-22.3,83.2c-1.6,6.2,1.1,12.6,6.6,15.9c2.1,1.1,4.3,1.6,6.4,1.6c4,0,7.7-1.6,10.4-4.8l144.6-173.6
	C286.3,142,286.9,136.3,284.7,131.5z M157.2,254.5l10.9-40.6c1.1-4,0.3-8.6-2.4-11.8c-2.7-3.5-6.6-5.4-10.6-5.4H79.3L163,50.2h48.6
	l-50,79.4c-2.7,4.3-2.9,9.7-0.5,14c2.4,4.3,6.9,7,12,7h70.2L157.2,254.5z"/>
<path id="XMLID_453_" class="st1" d="M274.9,115.6c-2.1-4.8-6.9-7.8-12.2-7.8H188l50-79.4c2.7-4.3,2.9-9.7,0.5-14s-6.9-7-12-7h-81.3
	c-4.8,0-9.3,2.7-11.7,6.7L34.1,187.7c-2.4,4.3-2.4,9.4,0,13.7c2.4,4.3,6.9,7,11.7,7h81.6l-22.3,83.2c-1.6,6.2,1.1,12.6,6.6,15.9
	c2.1,1.1,4.3,1.6,6.4,1.6c4,0,7.7-1.6,10.4-4.8L273,130.7C276.2,126.1,277,120.5,274.9,115.6z M147.3,238.6l10.9-40.6
	c1.1-4,0.3-8.6-2.4-11.8c-2.7-3.5-6.6-5.4-10.6-5.4H69.5l83.7-146.4h48.9l-50,79.4c-2.7,4.3-2.9,9.7-0.5,14c2.4,4.3,6.9,7,12,7h70.2
	L147.3,238.6z"/>
</svg>
